Coordinates
version=1
nRows=8
nColumns=40
inDegrees=yes

Units are S.I. units (second, meters, Newtons, ...)
If the header above contains a line with 'inDegrees', this indicates whether rotational values are in degrees (yes) or radians (no).

endheader
time	pelvis_tilt	pelvis_list	pelvis_rotation	pelvis_tx	pelvis_ty	pelvis_tz	hip_flexion_r	hip_adduction_r	hip_rotation_r	knee_angle_r	knee_angle_r_beta	ankle_angle_r	subtalar_angle_r	mtp_angle_r	hip_flexion_l	hip_adduction_l	hip_rotation_l	knee_angle_l	knee_angle_l_beta	ankle_angle_l	subtalar_angle_l	mtp_angle_l	lumbar_extension	lumbar_bending	lumbar_rotation	arm_flex_r	arm_add_r	arm_rot_r	elbow_flex_r	pro_sup_r	wrist_flex_r	wrist_dev_r	arm_flex_l	arm_add_l	arm_rot_l	elbow_flex_l	pro_sup_l	wrist_flex_l	wrist_dev_l
      1.27000000	     -2.35359404	     -5.61186398	     86.78405303	      0.16509504	      0.96603341	      0.40487967	     26.91634398	     -4.40842138	     -1.68279233	     68.96133143	      1.20360229	     -9.37638168	      0.00000000	      0.00000000	     15.10438880	      5.23409257	     -2.24480184	     15.53762960	      0.27118279	      0.48859785	      0.00000000	      0.00000000	      1.70254244	     -1.79682908	      2.03092780	      0.00000000	      0.00000000	      0.00000000	      0.00000000	      0.00000000	      0.00000000	      0.00000000	      0.00000000	      0.00000000	      0.00000000	      0.00000000	      0.00000000	      0.00000000	      0.00000000
      1.28000000	     -2.09871801	     -5.66849594	     86.75532662	      0.16442209	      0.96689024	      0.39702334	     28.10120112	     -4.04208229	     -1.81895930	     68.37912975	      1.19344095	     -7.94270112	      0.00000000	      0.00000000	     14.40280776	      5.07071115	     -2.09714817	     15.11840658	      0.26386597	      0.70038025	      0.00000000	      0.00000000	      1.63656653	     -1.45258265	      1.88618457	      0.00000000	      0.00000000	      0.00000000	      0.00000000	      0.00000000	      0.00000000	      0.00000000	      0.00000000	      0.00000000	      0.00000000	      0.00000000	      0.00000000	      0.00000000	      0.00000000
      1.29000000	     -1.85243028	     -5.72923689	     86.74560743	      0.16377618	      0.96764215	      0.38917152	     29.18125990	     -3.69953738	     -2.00562914	     67.45928139	      1.17738657	     -6.59085142	      0.00000000	     -0.00000000	     13.69814128	      4.91330173	     -1.95937555	     14.68369698	      0.25627886	      0.91239230	     -0.00000000	     -0.00000000	      1.57937729	     -1.11898115	      1.74570023	      0.00000000	      0.00000000	      0.00000000	      0.00000000	      0.00000000	     -0.00000000	      0.00000000	     -0.00000000	     -0.00000000	      0.00000000	      0.00000000	      0.00000000	     -0.00000000	     -0.00000000
      1.30000000	     -1.61007170	     -5.75272870	     86.77865310	      0.16313398	      0.96835529	      0.38129768	     30.09364477	     -3.39713268	     -2.26810246	     66.19135725	      1.15525712	     -5.30168572	     -0.00000000	      0.00000000	     12.95011257	      4.76444142	     -1.77121074	     14.24347101	      0.24859547	      1.10908497	     -0.00000000	      0.00000000	      1.46988875	     -0.80559723	      1.59968069	      0.00000000	     -0.00000000	      0.00000000	      0.00000000	      0.00000000	     -0.00000000	      0.00000000	     -0.00000000	     -0.00000000	     -0.00000000	      0.00000000	      0.00000000	      0.00000000	      0.00000000
      1.31000000	     -1.40376008	     -5.83365700	     86.78047938	      0.16255870	      0.96888945	      0.37343408	     30.97214197	     -3.10564800	     -2.49491007	     64.61260152	      1.12770263	     -4.31518045	      0.00000000	      0.00000000	     12.25415443	      4.63874811	     -1.67994228	     13.77335196	      0.24039034	      1.32863753	      0.00000000	      0.00000000	      1.44636530	     -0.52137099	      1.46062104	      0.00000000	      0.00000000	      0.00000000	      0.00000000	      0.00000000	      0.00000000	      0.00000000	      0.00000000	      0.00000000	      0.00000000	      0.00000000	      0.00000000	      0.00000000	      0.00000000
      1.32000000	     -1.17442194	     -5.81783127	     86.84847247	      0.16196565	      0.96946497	      0.36548881	     31.58148127	     -2.84054088	     -2.83095243	     62.66712546	      1.09374767	     -3.37141799	      0.00000000	      0.00000000	     11.44472419	      4.50804245	     -1.43807565	     13.30089507	      0.23214441	      1.51377387	      0.00000000	      0.00000000	      1.29900513	     -0.23065486	      1.29137459	      0.00000000	      0.00000000	      0.00000000	      0.00000000	      0.00000000	      0.00000000	      0.00000000	      0.00000000	      0.00000000	      0.00000000	      0.00000000	      0.00000000	      0.00000000	      0.00000000
      1.33000000	     -0.97723045	     -5.82568664	     86.90796805	      0.16144598	      0.96987527	      0.35750100	     32.11512096	     -2.60606477	     -3.16942346	     60.44762285	      1.05501004	     -2.67601974	      0.00000000	      0.00000000	     10.64150526	      4.40002985	     -1.25519016	     12.79117072	      0.22324804	      1.71826074	      0.00000000	      0.00000000	      1.19518300	      0.02518435	      1.11942094	      0.00000000	      0.00000000	      0.00000000	      0.00000000	      0.00000000	      0.00000000	      0.00000000	      0.00000000	      0.00000000	      0.00000000	      0.00000000	      0.00000000	      0.00000000	      0.00000000
      1.34000000	     -0.85426260	     -5.90605290	     86.95543853	      0.16098781	      0.97001518	      0.34957239	     32.64158098	     -2.43769130	     -3.49820022	     57.97656744	      1.01188199	     -2.14157964	      0.00000000	      0.00000000	      9.95102214	      4.34955282	     -1.13769205	     12.32145217	      0.21504991	      1.92503345	      0.00000000	      0.00000000	      1.16203931	      0.18454286	      0.97871514	      0.00000000	      0.00000000	      0.00000000	      0.00000000	      0.00000000	      0.00000000	      0.00000000	      0.00000000	      0.00000000	      0.00000000	      0.00000000	      0.00000000	      0.00000000	      0.00000000
